<svg xmlns="http://www.w3.org/2000/svg" viewBox="0 0 147.01 391.1"><polygon points="98.01 334.51 147.01 306.23 98.01 277.94 49 306.23 49 306.23 0 334.51 49 362.81 49 362.81 98.01 391.1 147.01 362.81 98.01 334.51 98.01 334.51" style="fill:#d6edfb"/><polygon points="98.01 264.04 98.01 56.57 147.01 28.29 147.01 235.76 98.01 264.04" style="fill:#193f77"/><polygon points="98.01 56.57 49 28.29 49 235.76 98.01 264.04 98.01 56.57" style="fill:#3b6ead"/><polygon points="147.01 28.29 98.01 0 49 28.29 98.01 56.57 147.01 28.29" style="fill:#d6edfb"/><polygon points="147.01 273.49 98.01 245.19 98.01 264.04 147.01 292.34 147.01 273.49" style="fill:#97c560"/><polygon points="49 292.34 49 141.46 98.01 113.16 98.01 264.04 49 292.34" style="fill:#c13f1c"/><polygon points="98.01 113.16 49 84.87 0 113.16 49 141.46 98.01 113.16" style="fill:#ec6232"/><polygon points="49 292.34 49 141.46 98.01 113.16 98.01 264.04 49 292.34" style="fill:#3b6ead"/><polygon points="49 141.46 0 113.16 0 264.04 49 292.34 49 141.46" style="fill:#5793ce"/><polygon points="98.01 113.16 49 84.87 0 113.16 49 141.46 98.01 113.16" style="fill:#d6edfb"/><polygon points="98.01 320.63 98.01 235.76 147.01 207.47 147.01 292.34 98.01 320.63" style="fill:#193f77"/><polygon points="98.01 235.76 49 207.47 49 292.34 98.01 320.63 98.01 235.76" style="fill:#3b6ead"/><polygon points="147.01 207.47 98.01 179.17 49 207.47 98.01 235.76 147.01 207.47" style="fill:#d6edfb"/></svg>