<svg xmlns="http://www.w3.org/2000/svg" viewBox="0 0 289.36 390.51"><polygon points="0 363.74 46.39 336.97 92.75 363.74 46.39 390.51 0 363.74" style="fill:#d6edfb"/><polygon points="98.45 306.13 144.82 279.36 191.21 306.13 144.82 332.93 98.45 306.13" style="fill:#d6edfb"/><polygon points="196.61 249.91 242.97 223.14 289.36 249.91 242.97 276.7 196.61 249.91" style="fill:#d6edfb"/><polygon points="144.82 306.13 144.82 163.34 98.45 136.56 98.45 279.36 144.82 306.13" style="fill:#c13f1c"/><polygon points="144.82 163.34 191.21 136.56 191.21 279.36 144.82 306.13 144.82 163.34" style="fill:#2a3180"/><polygon points="144.82 306.13 144.82 163.34 98.45 136.56 98.45 279.36 144.82 306.13" style="fill:#1f3d88"/><polygon points="46.39 363.74 46.39 283.42 0 256.63 0 336.97 46.39 363.74" style="fill:#1f3d88"/><polygon points="46.39 283.42 92.75 256.63 92.75 336.97 46.39 363.74 46.39 283.42" style="fill:#2a3180"/><polygon points="0 256.63 46.39 229.86 92.75 256.63 46.39 283.42 0 256.63" style="fill:#3f5da8"/><polygon points="242.97 249.91 242.97 53.56 196.61 26.79 196.61 223.14 242.97 249.91" style="fill:#1f3d88"/><polygon points="242.97 53.56 289.36 26.79 289.36 223.14 242.97 249.91 242.97 53.56" style="fill:#2a3180"/><polygon points="196.61 26.79 242.97 0 289.36 26.79 242.97 53.56 196.61 26.79" style="fill:#3f5da8"/><polygon points="98.45 136.56 144.82 109.79 191.21 136.56 144.82 163.34 98.45 136.56" style="fill:#3f5da8"/></svg>