<svg xmlns="http://www.w3.org/2000/svg" viewBox="0 0 296.25 378.79"><path d="M317.61,148.5,82.53,12.79a12,12,0,0,0-12.17-1h0L47.53,25.14l16,5.87V202.12c0,13.9,8.49,30.12,18.93,36.11L307.17,368v20.08l23.06-13.33h0c3.91-2.35,6.39-7.55,6.39-15.06v-175C336.54,170.71,328.05,154.54,317.61,148.5Z" transform="translate(-40.38 -10.6)" style="fill:#5793ce"/><path d="M294.25,387.14,59.3,251.43c-10.44-6-18.92-22.21-18.92-36.16V40.47c0-13.95,8.48-20.35,18.92-14.3l235,136c10.48,6,18.92,22.21,18.92,36.12V373.05C313.3,386.78,304.86,393.13,294.25,387.14Z" transform="translate(-40.38 -10.6)" style="fill:#d6edfb"/><path d="M138.37,191.19c0,10.09-7.11,14.22-15.86,9.15a35.09,35.09,0,0,1-15.86-27.49c0-10.09,7.11-14.22,15.86-9.15A35.06,35.06,0,0,1,138.37,191.19Z" transform="translate(-40.38 -10.6)" style="fill:#fff"/><path d="M186.43,218.91c0,10.13-7.1,14.22-15.85,9.15a34.9,34.9,0,0,1-15.91-27.45c0-10.13,7.11-14.22,15.91-9.15A35.07,35.07,0,0,1,186.43,218.91Z" transform="translate(-40.38 -10.6)" style="fill:#fff"/><path d="M234.45,246.54c0,10.09-7.06,14.22-15.85,9.15a35.07,35.07,0,0,1-15.86-27.49c0-10.09,7.1-14.22,15.86-9.16A35,35,0,0,1,234.45,246.54Z" transform="translate(-40.38 -10.6)" style="fill:#fff"/></svg>