<svg xmlns="http://www.w3.org/2000/svg" viewBox="0 0 234.55 110.09"><path d="M215.24,64.13c-19.78-11.41-51.83-11.41-71.6,0s-19.77,29.93,0,41.34,51.83,11.42,71.6,0S235,75.55,215.24,64.13ZM195.89,94.3c-9.09,5.25-23.82,5.25-32.91,0s-9.09-13.75,0-19,23.82-5.25,32.91,0S205,89.06,195.89,94.3Z" transform="translate(-3.68 -3.94)" style="fill:#d5ecfb"/><path d="M136.17,57.37l18.06.28a19.11,19.11,0,0,1,5.7-4.79c9.93-5.74,25.55-6.18,36.37-1.34L207,41.43l16.53.25c-.82-.53-1.66-1.06-2.54-1.57-23-13.26-60.2-13.26-83.16,0a43.7,43.7,0,0,0-10.34,8Z" transform="translate(-3.68 -3.94)" style="fill:#2d2e83"/><polygon points="219.88 11.52 219.88 37.74 203.35 37.48 203.35 11.26 219.88 11.52" style="fill:#2d2e83"/><polygon points="192.62 21.35 192.62 47.58 203.35 37.48 203.35 11.26 192.62 21.35" style="fill:#2d2e83"/><path d="M154.23,31.43V57.65L178,38.29,196.3,51.52V25.29l-16.86-8.18S156.22,24.22,155,24.52,154.23,31.43,154.23,31.43Z" transform="translate(-3.68 -3.94)" style="fill:#2d2e83"/><polygon points="132.49 27.2 132.49 53.43 150.55 53.71 150.55 27.48 132.49 27.2" style="fill:#2d2e83"/><polygon points="123.84 17.99 123.84 44.22 132.49 53.43 132.49 27.2 123.84 17.99" style="fill:#2d2e83"/><path d="M136.17,31.14l18.06.29a19.28,19.28,0,0,1,5.7-4.8c9.93-5.73,25.55-6.18,36.37-1.34L207,15.2l16.53.26c-.82-.54-1.66-1.06-2.54-1.58-23-13.25-60.2-13.25-83.16,0a43.7,43.7,0,0,0-10.34,8Z" transform="translate(-3.68 -3.94)" style="fill:#3f5ca7"/><path d="M201.74,28.52V52.63l15.63-3.75s-.92-14.11-1.25-14.48S201.74,28.52,201.74,28.52Z" transform="translate(-3.68 -3.94)" style="fill:#5793ce"/><path d="M189.91,52.63V78.85l1.69,1.8,11-6.35s-1.71-20-1.91-20.42S189.91,52.63,189.91,52.63Z" transform="translate(-3.68 -3.94)" style="fill:#1a3e78"/><path d="M211.19,45.86l-9.45,8.88c7.87,6.23,6.94,15-2.8,20.64a33.43,33.43,0,0,1-9,3.47l9.77,10.41L191,97.4c11-1.27,21.48-4.36,30-9.28,19.74-11.39,22.49-28.88,8.29-42Z" transform="translate(-3.68 -3.94)" style="fill:#3a6dac"/><polygon points="187.34 67.23 187.34 93.46 208.78 85.18 234.55 60.59 234.46 32.74 207.18 54.36 187.34 67.23" style="fill:#3a6dac"/><path d="M211.19,19.63l-9.45,8.89c7.87,6.23,6.94,15-2.8,20.63a33.78,33.78,0,0,1-9,3.48L199.68,63,191,71.17c11-1.26,21.48-4.35,30-9.27,19.74-11.4,22.49-28.88,8.29-42Z" transform="translate(-3.68 -3.94)" style="fill:#d5ecfb"/><path d="M191,89.12,182.34,80c-8,.49-16.28-1-22.41-4.57-6.33-3.66-8.93-8.64-7.82-13.4l-20.51-.32-7.88-8.39c-6.9,11.83-2.19,25.42,14.14,34.85,12,6.93,27.89,10.23,43.61,9.92Z" transform="translate(-3.68 -3.94)" style="fill:#3a6dac"/><polygon points="177.79 67.87 177.79 94.1 116.97 60.39 116.97 34.15 125.85 37.74 177.79 67.87" style="fill:#3a6dac"/><polygon points="187.27 58.96 187.27 85.18 177.79 94.1 177.79 67.87 187.27 58.96" style="fill:#1a3e78"/><path d="M191,62.9l-8.61-9.17c-8,.48-16.28-1-22.41-4.58-6.33-3.65-8.93-8.64-7.82-13.39l-20.51-.32L123.72,27c-6.9,11.83-2.19,25.43,14.14,34.86,12,6.92,27.89,10.22,43.61,9.91Z" transform="translate(-3.68 -3.94)" style="fill:#5793ce"/><path d="M22.72,49.57a9.52,9.52,0,1,1-9.52-9.52A9.52,9.52,0,0,1,22.72,49.57Z" transform="translate(-3.68 -3.94)" style="fill:#d5ecfb"/></svg>