<svg xmlns="http://www.w3.org/2000/svg" viewBox="0 0 608.37 592.8"><rect x="601.15" y="338.13" width="10.28" height="3.54" transform="translate(-68.98 162.11) rotate(-14.45)" style="fill:#5793ce"/><rect x="595.51" y="341.71" width="10.26" height="3.53" transform="translate(-69.82 159.97) rotate(-14.38)" style="fill:#5793ce"/><rect x="590.44" y="346.66" width="10.26" height="3.53" transform="translate(-71.2 158.87) rotate(-14.38)" style="fill:#5793ce"/><rect x="585.28" y="351.57" width="10.26" height="3.53" transform="translate(-72.55 157.62) rotate(-14.37)" style="fill:#5793ce"/><path d="M348.2,590.31,125.64,461.82c-6.29-3.64-5.5-10,1.77-14.18L279,360.17c7.27-4.2,18.27-4.65,24.56-1l222.56,128.5c6.3,3.63,5.51,10-1.76,14.18L372.78,589.29C365.49,593.49,354.5,593.94,348.2,590.31Z" transform="translate(-3.33 0.04)" style="fill:#d5ecfb"/><path d="M534.3,234.89,308.07,104.38c-2.91-1.68-5.59-1.94-7.74-1h0l-.37.18h-.09L292.51,107l8,4v.44l.07,185.82c0,9.3,5.76,20.15,12.85,24.24l220.2,127,1.25,10.36,8-3.83c2.65-1.56,4.33-5.07,4.33-10.08l-.07-185.82C547.15,249.83,541.4,239,534.3,234.89Z" transform="translate(-3.33 0.04)" style="fill:#1a3e78"/><path d="M534.3,234.89,308.07,104.38c-2.91-1.68-5.59-1.94-7.74-1h0l-.37.18h-.09L292.51,107l8,4v.44l.05,122.47,103,81.34,139.8-70.35C541,240.57,537.78,236.9,534.3,234.89Z" transform="translate(-3.33 0.04)" style="fill:#3a6dac"/><path d="M538.08,237.81l-22.17,9.32L532.65,260l14-5.95A32.55,32.55,0,0,0,538.08,237.81Z" transform="translate(-3.33 0.04)" style="fill:#284f8a"/><path d="M526.94,457.88,300.71,327.37c-7.1-4.09-12.85-14.94-12.86-24.24l-.07-185.82c0-9.29,5.75-13.51,12.85-9.42l226.23,130.5c7.09,4.1,12.85,15,12.85,24.25l.07,185.81C539.78,457.75,534,462,526.94,457.88Z" transform="translate(-3.33 0.04)" style="fill:#d5ecfb"/><path d="M519.41,444.06,308.13,322.23c-6.5-3.74-11.76-13.68-11.77-22.19l-.06-170c0-8.51,5.26-12.37,11.75-8.63l211.29,121.8c6.49,3.75,11.76,13.68,11.76,22.19l.06,170C531.17,443.94,525.91,447.8,519.41,444.06Z" transform="translate(-3.33 0.04)" style="fill:#fff"/><path d="M519.41,444.06,308.13,322.23c-6.5-3.74-11.76-13.68-11.77-22.19l-.06-170c0-8.51,5.26-12.37,11.75-8.63l211.29,121.8c6.49,3.75,11.76,13.68,11.76,22.19l.06,170C531.17,443.94,525.91,447.8,519.41,444.06Z" transform="translate(-3.33 0.04)" style="fill:#fff"/><path d="M530.32,463.65l-30.43-4L303.51,346.25c-6.29-3.63-17.29-3.18-24.56,1L139.78,427.58l-18.4-2.43v10.44h0c-.12,2.42,1.25,4.74,4.22,6.45L348.2,570.53c6.3,3.64,17.29,3.18,24.56-1l151.55-87.47c4.09-2.36,6.13-5.4,6-8.26h0Z" transform="translate(-3.33 0.04)" style="fill:#1a3e78"/><path d="M382.78,392l-14-8H215.42l-75.64,43.58-18.4-2.43v10.44h0c-.12,2.42,1.25,4.74,4.22,6.45L348.2,570.53c3.33,1.93,8,2.69,12.68,2.38Z" transform="translate(-3.33 0.04)" style="fill:#3a6dac"/><path d="M129.56,426.23l-8.16-1.08v10.44h0c-.12,2.42,1.25,4.74,4.22,6.45l3.92,2.27Z" transform="translate(-3.33 0.04)" style="fill:#5793ce"/><path d="M350.44,571.58c6,2.26,14.5,1.77,20.87-1.3V547H350.44Z" transform="translate(-3.33 0.04)" style="fill:#284f8a"/><path d="M348.2,560.11,125.64,431.62c-6.29-3.64-5.5-10,1.77-14.19L279,330c7.27-4.2,18.27-4.65,24.56-1L526.07,457.44c6.3,3.64,5.51,10-1.76,14.19L372.78,559.09C365.49,563.29,354.5,563.74,348.2,560.11Z" transform="translate(-3.33 0.04)" style="fill:#d5ecfb"/><path d="M524.31,467.81,372.78,555.28c-7.27,4.2-18.26,4.65-24.56,1L125.64,427.8a8.25,8.25,0,0,1-3.91-4.28c-1,3,.27,6,3.91,8.1L348.2,560.11c6.3,3.63,17.29,3.18,24.56-1l151.55-87.46c4.88-2.83,6.83-6.62,5.67-9.9C529.27,463.89,527.37,466,524.31,467.81Z" transform="translate(-3.33 0.04)" style="fill:#fff"/><path d="M220.3,389.08l-10.07-5.82c-.81-.46-.71-1.28.23-1.82l11.88-6.86a3.52,3.52,0,0,1,3.16-.13l10.07,5.81c.8.47.7,1.28-.23,1.82L223.45,389A3.53,3.53,0,0,1,220.3,389.08Z" transform="translate(-3.33 0.04)" style="fill:#1a3e78"/><path d="M235.85,398.05l-10.07-5.81c-.81-.47-.71-1.28.23-1.82l11.88-6.86a3.52,3.52,0,0,1,3.16-.13l10.07,5.81c.8.47.7,1.28-.23,1.82L239,397.92A3.5,3.5,0,0,1,235.85,398.05Z" transform="translate(-3.33 0.04)" style="fill:#1a3e78"/><path d="M251.4,407l-10.07-5.81c-.81-.47-.71-1.28.23-1.82l11.88-6.86a3.55,3.55,0,0,1,3.16-.14l10.07,5.82c.81.47.7,1.28-.23,1.82l-11.89,6.86A3.5,3.5,0,0,1,251.4,407Z" transform="translate(-3.33 0.04)" style="fill:#1a3e78"/><path d="M272.91,399.62l-10.07-5.82c-.81-.46-.71-1.28.22-1.82l10-5.76a3.52,3.52,0,0,1,3.16-.13l10.07,5.82c.8.46.7,1.28-.23,1.82l-10,5.76A3.5,3.5,0,0,1,272.91,399.62Z" transform="translate(-3.33 0.04)" style="fill:#1a3e78"/><path d="M288.46,408.6l-10.07-5.82c-.81-.46-.71-1.28.23-1.82l10-5.76a3.52,3.52,0,0,1,3.16-.13l10,5.81c.81.47.7,1.29-.23,1.83l-10,5.76A3.57,3.57,0,0,1,288.46,408.6Z" transform="translate(-3.33 0.04)" style="fill:#1a3e78"/><path d="M304,417.57l-10.07-5.81c-.81-.47-.71-1.28.23-1.82l10-5.76a3.52,3.52,0,0,1,3.16-.13l10.07,5.81c.81.47.71,1.28-.23,1.82l-10,5.76A3.46,3.46,0,0,1,304,417.57Z" transform="translate(-3.33 0.04)" style="fill:#1a3e78"/><path d="M319.56,426.55l-10.07-5.81c-.81-.47-.71-1.28.23-1.82l10-5.76a3.52,3.52,0,0,1,3.16-.13L333,418.84c.81.47.71,1.28-.23,1.82l-10,5.76A3.46,3.46,0,0,1,319.56,426.55Z" transform="translate(-3.33 0.04)" style="fill:#1a3e78"/><path d="M335.11,435.53,325,429.72c-.81-.47-.71-1.28.23-1.82l10-5.76a3.5,3.5,0,0,1,3.15-.13l10.07,5.81c.81.47.71,1.28-.23,1.82l-10,5.76A3.5,3.5,0,0,1,335.11,435.53Z" transform="translate(-3.33 0.04)" style="fill:#1a3e78"/><path d="M350.66,444.51l-10.07-5.81c-.81-.47-.7-1.29.23-1.83l10-5.76A3.56,3.56,0,0,1,354,431L364,436.8c.81.46.71,1.28-.23,1.82l-10,5.76A3.5,3.5,0,0,1,350.66,444.51Z" transform="translate(-3.33 0.04)" style="fill:#1a3e78"/><path d="M366.21,453.49l-10.07-5.82c-.81-.46-.7-1.28.23-1.82l10-5.76a3.5,3.5,0,0,1,3.15-.13l10.07,5.82c.81.46.71,1.28-.22,1.82l-10,5.76A3.52,3.52,0,0,1,366.21,453.49Z" transform="translate(-3.33 0.04)" style="fill:#1a3e78"/><path d="M381.78,462.47l-10.07-5.82c-.8-.46-.7-1.28.23-1.82l10-5.76a3.5,3.5,0,0,1,3.15-.13l10.07,5.81c.81.47.71,1.29-.22,1.83l-10,5.76A3.58,3.58,0,0,1,381.78,462.47Z" transform="translate(-3.33 0.04)" style="fill:#1a3e78"/><path d="M397.31,471.44l-10.06-5.81c-.81-.47-.71-1.28.22-1.82l10-5.76a3.5,3.5,0,0,1,3.15-.13l10.07,5.81c.81.47.71,1.28-.22,1.82l-10,5.76A3.52,3.52,0,0,1,397.31,471.44Z" transform="translate(-3.33 0.04)" style="fill:#1a3e78"/><path d="M412.87,480.42l-10.09-5.81c-.81-.47-.71-1.28.22-1.82L413,467a3.5,3.5,0,0,1,3.15-.13l10.07,5.81c.81.47.71,1.28-.22,1.82l-10,5.76A3.46,3.46,0,0,1,412.87,480.42Z" transform="translate(-3.33 0.04)" style="fill:#1a3e78"/><path d="M295.78,395.37l-10-5.82c-.81-.46-.71-1.28.23-1.82L296,382a3.5,3.5,0,0,1,3.15-.13l10.07,5.82c.81.46.71,1.28-.23,1.82l-10,5.76A3.52,3.52,0,0,1,295.78,395.37Z" transform="translate(-3.33 0.04)" style="fill:#3a6dac"/><path d="M280,386.26,270,380.44c-.81-.47-.71-1.28.22-1.82l10-5.76a3.52,3.52,0,0,1,3.16-.13l10.07,5.81c.81.47.7,1.29-.23,1.82l-10,5.76A3.53,3.53,0,0,1,280,386.26Z" transform="translate(-3.33 0.04)" style="fill:#3a6dac"/><path d="M264.23,377.13l-21.69-12.52c-.81-.47-.71-1.29.23-1.82l10-5.79a3.53,3.53,0,0,1,3.15-.14l21.69,12.53c.81.46.71,1.28-.23,1.82l-10,5.76A3.52,3.52,0,0,1,264.23,377.13Z" transform="translate(-3.33 0.04)" style="fill:#1a3e78"/><path d="M275.28,366l-17.6-10.16c-.81-.47-.71-1.29.23-1.82l10-5.76a3.55,3.55,0,0,1,3.16-.14l17.6,10.17c.81.46.71,1.28-.23,1.82l-10,5.76A3.46,3.46,0,0,1,275.28,366Z" transform="translate(-3.33 0.04)" style="fill:#1a3e78"/><path d="M311.37,404.35l-10.07-5.82c-.81-.46-.7-1.28.23-1.82l10-5.76a3.5,3.5,0,0,1,3.15-.13l10.1,5.81c.81.47.71,1.29-.23,1.82l-10,5.77A3.56,3.56,0,0,1,311.37,404.35Z" transform="translate(-3.33 0.04)" style="fill:#3a6dac"/><path d="M326.92,413.32l-10.07-5.81c-.81-.47-.7-1.28.23-1.82l10-5.76a3.5,3.5,0,0,1,3.15-.13l10.07,5.81c.81.47.71,1.28-.23,1.82l-10,5.76A3.5,3.5,0,0,1,326.92,413.32Z" transform="translate(-3.33 0.04)" style="fill:#1a3e78"/><path d="M342.47,422.3l-10.07-5.81c-.8-.47-.7-1.28.23-1.82l10-5.76a3.5,3.5,0,0,1,3.15-.13l10.07,5.81c.81.47.71,1.28-.22,1.82l-10,5.76A3.52,3.52,0,0,1,342.47,422.3Z" transform="translate(-3.33 0.04)" style="fill:#1a3e78"/><path d="M358,431.28,348,425.47c-.8-.47-.7-1.29.23-1.82l10-5.76a3.53,3.53,0,0,1,3.15-.14l10.07,5.82c.81.47.71,1.28-.22,1.82l-10,5.76A3.52,3.52,0,0,1,358,431.28Z" transform="translate(-3.33 0.04)" style="fill:#1a3e78"/><path d="M373.58,440.26l-10.07-5.81c-.81-.47-.71-1.29.22-1.83l10-5.76a3.5,3.5,0,0,1,3.15-.13L387,432.55c.81.46.71,1.28-.22,1.82l-10,5.76A3.5,3.5,0,0,1,373.58,440.26Z" transform="translate(-3.33 0.04)" style="fill:#1a3e78"/><path d="M389.13,449.24l-10.07-5.82c-.81-.46-.71-1.28.22-1.82l10-5.76a3.5,3.5,0,0,1,3.15-.13l10.07,5.81c.81.47.71,1.29-.22,1.83l-10,5.76A3.5,3.5,0,0,1,389.13,449.24Z" transform="translate(-3.33 0.04)" style="fill:#1a3e78"/><path d="M404.68,458.22l-10.07-5.82c-.81-.46-.71-1.28.22-1.82l10-5.76a3.52,3.52,0,0,1,3.16-.13l10.07,5.81c.8.47.7,1.29-.23,1.82l-10,5.76A3.53,3.53,0,0,1,404.68,458.22Z" transform="translate(-3.33 0.04)" style="fill:#1a3e78"/><path d="M420.23,467.19l-10.07-5.81c-.81-.47-.71-1.28.22-1.82l10-5.76a3.52,3.52,0,0,1,3.16-.13l10.07,5.81c.8.47.7,1.28-.23,1.82l-10,5.76A3.5,3.5,0,0,1,420.23,467.19Z" transform="translate(-3.33 0.04)" style="fill:#1a3e78"/><path d="M435.78,476.17l-10.07-5.81c-.81-.47-.71-1.28.23-1.82l10-5.76a3.52,3.52,0,0,1,3.16-.13l10.07,5.81c.81.47.7,1.28-.23,1.82l-10,5.76A3.46,3.46,0,0,1,435.78,476.17Z" transform="translate(-3.33 0.04)" style="fill:#1a3e78"/><path d="M463.42,492.13l-22-12.68c-.81-.47-.7-1.28.23-1.82l10-5.76a3.5,3.5,0,0,1,3.15-.13l22,12.68c.81.47.71,1.28-.22,1.82l-10,5.76A3.52,3.52,0,0,1,463.42,492.13Z" transform="translate(-3.33 0.04)" style="fill:#1a3e78"/><path d="M493.7,474.65,475.16,464c-.81-.47-.71-1.28.22-1.82l10-5.76a3.53,3.53,0,0,1,3.15-.14L507.08,467c.81.47.71,1.28-.23,1.82l-10,5.76A3.47,3.47,0,0,1,493.7,474.65Z" transform="translate(-3.33 0.04)" style="fill:#1a3e78"/><path d="M338.6,402.59l-10.06-5.81c-.81-.47-.71-1.29.22-1.83l10-5.76a3.5,3.5,0,0,1,3.15-.13L352,394.88c.81.46.71,1.28-.22,1.82l-10,5.76A3.52,3.52,0,0,1,338.6,402.59Z" transform="translate(-3.33 0.04)" style="fill:#1a3e78"/><path d="M322.67,393.39l-10.07-5.82c-.81-.46-.71-1.28.22-1.82l10-5.75a3.52,3.52,0,0,1,3.16-.13L336,385.69c.8.46.7,1.28-.23,1.82l-10,5.76A3.51,3.51,0,0,1,322.67,393.39Z" transform="translate(-3.33 0.04)" style="fill:#1a3e78"/><path d="M306.78,384.19l-10.07-5.82c-.81-.46-.71-1.28.23-1.82l10-5.76a3.52,3.52,0,0,1,3.16-.13l10.07,5.81c.81.47.71,1.29-.23,1.82l-10,5.77A3.55,3.55,0,0,1,306.78,384.19Z" transform="translate(-3.33 0.04)" style="fill:#3a6dac"/><path d="M290.78,375l-10.07-5.81c-.81-.47-.7-1.28.23-1.82l10-5.76a3.5,3.5,0,0,1,3.15-.13l10.07,5.81c.81.47.71,1.28-.23,1.82l-10,5.76A3.5,3.5,0,0,1,290.78,375Z" transform="translate(-3.33 0.04)" style="fill:#1a3e78"/><path d="M354.16,411.57l-10.07-5.82c-.81-.46-.71-1.28.22-1.82l10-5.76a3.5,3.5,0,0,1,3.15-.13l10.07,5.82c.81.46.71,1.28-.22,1.82l-10,5.76A3.5,3.5,0,0,1,354.16,411.57Z" transform="translate(-3.33 0.04)" style="fill:#1a3e78"/><path d="M369.71,420.55l-10.07-5.82c-.81-.46-.71-1.28.22-1.82l10-5.76A3.52,3.52,0,0,1,373,407l10.07,5.81c.8.47.7,1.29-.23,1.82l-10,5.77A3.56,3.56,0,0,1,369.71,420.55Z" transform="translate(-3.33 0.04)" style="fill:#1a3e78"/><path d="M385.26,429.52l-10.07-5.81c-.81-.47-.71-1.28.22-1.82l10-5.76a3.52,3.52,0,0,1,3.16-.13l10.07,5.81c.8.47.7,1.28-.23,1.82l-10,5.76A3.5,3.5,0,0,1,385.26,429.52Z" transform="translate(-3.33 0.04)" style="fill:#1a3e78"/><path d="M400.78,438.5l-10-5.81c-.81-.47-.71-1.28.22-1.82l10-5.76a3.52,3.52,0,0,1,3.16-.13l10.07,5.81c.81.47.7,1.28-.23,1.82l-10,5.76A3.46,3.46,0,0,1,400.78,438.5Z" transform="translate(-3.33 0.04)" style="fill:#1a3e78"/><path d="M416.36,447.48l-10.07-5.81c-.81-.47-.71-1.29.23-1.82l10-5.76a3.55,3.55,0,0,1,3.16-.14l10.07,5.82c.81.47.7,1.28-.23,1.82l-10,5.76A3.46,3.46,0,0,1,416.36,447.48Z" transform="translate(-3.33 0.04)" style="fill:#1a3e78"/><path d="M431.91,456.46l-10.07-5.81c-.81-.47-.71-1.29.23-1.83l10-5.76a3.52,3.52,0,0,1,3.16-.13l10.07,5.82c.81.46.71,1.28-.23,1.82l-10,5.76A3.46,3.46,0,0,1,431.91,456.46Z" transform="translate(-3.33 0.04)" style="fill:#1a3e78"/><path d="M447.46,465.44l-10.07-5.82c-.81-.46-.71-1.28.23-1.82l10-5.76a3.5,3.5,0,0,1,3.15-.13l10,5.81c.81.47.71,1.29-.23,1.83l-10,5.76A3.57,3.57,0,0,1,447.46,465.44Z" transform="translate(-3.33 0.04)" style="fill:#1a3e78"/><path d="M463,474.42l-10.07-5.82c-.81-.47-.71-1.28.23-1.82l10-5.76a3.5,3.5,0,0,1,3.15-.13l10.07,5.81c.81.47.71,1.29-.23,1.82l-10,5.76A3.53,3.53,0,0,1,463,474.42Z" transform="translate(-3.33 0.04)" style="fill:#1a3e78"/><path d="M478.56,483.39l-10.07-5.81c-.81-.47-.7-1.28.23-1.82l10-5.76a3.5,3.5,0,0,1,3.15-.13l10.07,5.81c.81.47.71,1.28-.23,1.82l-10,5.76A3.5,3.5,0,0,1,478.56,483.39Z" transform="translate(-3.33 0.04)" style="fill:#1a3e78"/><path d="M330.42,380.38l-10.07-5.81c-.81-.47-.71-1.28.22-1.82l10-5.76a3.52,3.52,0,0,1,3.16-.13l10,5.81c.81.47.71,1.28-.22,1.82l-10,5.76A3.48,3.48,0,0,1,330.42,380.38Z" transform="translate(-3.33 0.04)" style="fill:#1a3e78"/><path d="M314.94,371.45l-10.07-5.82c-.81-.46-.7-1.28.23-1.82l10-5.76a3.5,3.5,0,0,1,3.15-.13l10.07,5.82c.81.46.71,1.28-.23,1.82l-10,5.76A3.5,3.5,0,0,1,314.94,371.45Z" transform="translate(-3.33 0.04)" style="fill:#1a3e78"/><path d="M299.47,362.51,289.4,356.7c-.81-.47-.71-1.28.23-1.82l10-5.76a3.5,3.5,0,0,1,3.15-.12l10.07,5.81c.81.47.7,1.28-.23,1.82l-10,5.76A3.47,3.47,0,0,1,299.47,362.51Z" transform="translate(-3.33 0.04)" style="fill:#1a3e78"/><path d="M284,353.58l-10.07-5.81c-.81-.47-.71-1.28.22-1.82l10-5.76a3.53,3.53,0,0,1,3.15-.14l10.07,5.82c.81.47.71,1.28-.22,1.82l-10,5.76A3.5,3.5,0,0,1,284,353.58Z" transform="translate(-3.33 0.04)" style="fill:#1a3e78"/><path d="M299.91,344.39l-10.07-5.81c-.81-.47-.71-1.28.22-1.82l3.3-1.9a3.55,3.55,0,0,1,3.16-.14l10.07,5.82c.81.47.7,1.28-.23,1.82l-3.3,1.9A3.5,3.5,0,0,1,299.91,344.39Z" transform="translate(-3.33 0.04)" style="fill:#1a3e78"/><path d="M320.1,356.05,310,350.24c-.81-.47-.71-1.28.23-1.82l3.3-1.91a3.5,3.5,0,0,1,3.15-.13l10.07,5.82c.81.46.71,1.28-.23,1.82l-3.3,1.9A3.5,3.5,0,0,1,320.1,356.05Z" transform="translate(-3.33 0.04)" style="fill:#1a3e78"/><path d="M335.51,365l-10.07-5.81c-.81-.47-.71-1.29.23-1.83l3.29-1.9a3.52,3.52,0,0,1,3.16-.13l10.07,5.81c.81.47.71,1.29-.23,1.82l-3.3,1.91A3.5,3.5,0,0,1,335.51,365Z" transform="translate(-3.33 0.04)" style="fill:#1a3e78"/><path d="M350.92,373.85,340.85,368c-.81-.46-.71-1.28.23-1.82l3.29-1.9a3.52,3.52,0,0,1,3.16-.13L357.6,370c.81.47.7,1.28-.23,1.82l-3.3,1.91A3.56,3.56,0,0,1,350.92,373.85Z" transform="translate(-3.33 0.04)" style="fill:#1a3e78"/><path d="M366.33,382.74l-10.07-5.81c-.81-.47-.71-1.28.22-1.82l3.3-1.91a3.52,3.52,0,0,1,3.16-.13L373,378.89c.81.46.7,1.28-.23,1.82l-3.3,1.9A3.5,3.5,0,0,1,366.33,382.74Z" transform="translate(-3.33 0.04)" style="fill:#1a3e78"/><path d="M452.35,432.41l-10.07-5.81c-.8-.47-.7-1.29.23-1.83l3.3-1.9a3.5,3.5,0,0,1,3.15-.13L459,428.55c.81.47.71,1.29-.22,1.82l-3.3,1.91A3.52,3.52,0,0,1,452.35,432.41Z" transform="translate(-3.33 0.04)" style="fill:#1a3e78"/><path d="M467.78,441.31l-10.07-5.82c-.81-.46-.7-1.28.23-1.82l3.3-1.9a3.5,3.5,0,0,1,3.15-.13l10.07,5.81c.81.47.71,1.28-.22,1.82l-3.3,1.91A3.58,3.58,0,0,1,467.78,441.31Z" transform="translate(-3.33 0.04)" style="fill:#1a3e78"/><path d="M483.17,450.2l-10.07-5.81c-.81-.47-.71-1.28.23-1.82l3.3-1.91a3.5,3.5,0,0,1,3.15-.13l10.07,5.82c.81.46.71,1.28-.23,1.82l-3.29,1.9A3.52,3.52,0,0,1,483.17,450.2Z" transform="translate(-3.33 0.04)" style="fill:#1a3e78"/><path d="M498.58,459.1l-10.07-5.82c-.81-.46-.71-1.28.23-1.82l3.3-1.9a3.5,3.5,0,0,1,3.15-.13l10.07,5.81c.81.47.71,1.28-.23,1.82L501.78,459A3.48,3.48,0,0,1,498.58,459.1Z" transform="translate(-3.33 0.04)" style="fill:#1a3e78"/><path d="M346,389.36l-10.07-5.81c-.81-.47-.71-1.29.22-1.82l10-5.77a3.58,3.58,0,0,1,3.16-.13l10.07,5.82c.8.46.7,1.28-.23,1.82l-10,5.76A3.5,3.5,0,0,1,346,389.36Z" transform="translate(-3.33 0.04)" style="fill:#1a3e78"/><path d="M361.52,398.34l-10.07-5.82c-.81-.46-.71-1.28.22-1.82l10-5.76a3.52,3.52,0,0,1,3.16-.13l10.07,5.82c.81.46.7,1.28-.23,1.82l-10,5.76A3.5,3.5,0,0,1,361.52,398.34Z" transform="translate(-3.33 0.04)" style="fill:#1a3e78"/><path d="M377.07,407.32,367,401.5c-.81-.46-.71-1.28.23-1.82l10-5.76a3.52,3.52,0,0,1,3.16-.13l10.07,5.81c.81.47.7,1.29-.23,1.83l-10,5.76A3.52,3.52,0,0,1,377.07,407.32Z" transform="translate(-3.33 0.04)" style="fill:#1a3e78"/><path d="M392.62,416.3l-10.07-5.82c-.81-.47-.71-1.28.23-1.82l10-5.76a3.52,3.52,0,0,1,3.16-.13L406,408.58c.81.47.71,1.28-.23,1.82l-10,5.76A3.52,3.52,0,0,1,392.62,416.3Z" transform="translate(-3.33 0.04)" style="fill:#1a3e78"/><path d="M408.17,425.27l-10.07-5.81c-.81-.47-.71-1.28.23-1.82l10-5.76a3.52,3.52,0,0,1,3.16-.13l10.07,5.81c.81.47.71,1.28-.23,1.82l-10,5.76A3.46,3.46,0,0,1,408.17,425.27Z" transform="translate(-3.33 0.04)" style="fill:#1a3e78"/><path d="M423.72,434.25l-10.07-5.81c-.81-.47-.71-1.28.23-1.82l10-5.76a3.5,3.5,0,0,1,3.15-.13l10.07,5.81c.81.47.71,1.28-.23,1.82l-10,5.76A3.5,3.5,0,0,1,423.72,434.25Z" transform="translate(-3.33 0.04)" style="fill:#1a3e78"/><path d="M439.27,443.23l-10.07-5.81c-.81-.47-.7-1.29.23-1.82l10-5.77a3.56,3.56,0,0,1,3.15-.13l10.07,5.82c.81.46.71,1.28-.23,1.82l-10,5.76A3.5,3.5,0,0,1,439.27,443.23Z" transform="translate(-3.33 0.04)" style="fill:#1a3e78"/><path d="M454.78,452.21l-10-5.82c-.81-.46-.7-1.28.23-1.82l10-5.76a3.5,3.5,0,0,1,3.15-.13l10.07,5.82c.81.46.71,1.28-.22,1.82l-10,5.76A3.48,3.48,0,0,1,454.78,452.21Z" transform="translate(-3.33 0.04)" style="fill:#1a3e78"/><path d="M470.37,461.19l-10.07-5.82c-.8-.46-.7-1.28.23-1.82l10-5.76a3.5,3.5,0,0,1,3.15-.13l10.1,5.81c.81.47.71,1.29-.22,1.83l-10,5.76A3.58,3.58,0,0,1,470.37,461.19Z" transform="translate(-3.33 0.04)" style="fill:#1a3e78"/><path d="M257.06,390.47,227.4,373.35c-.8-.47-.7-1.29.23-1.82l10-5.77a3.56,3.56,0,0,1,3.15-.13l29.66,17.13c.81.46.71,1.28-.23,1.82l-10,5.76A3.5,3.5,0,0,1,257.06,390.47Z" transform="translate(-3.33 0.04)" style="fill:#1a3e78"/><path d="M448.11,500.77l-29.66-17.12c-.81-.47-.71-1.29.23-1.82l10-5.76a3.55,3.55,0,0,1,3.16-.14l29.65,17.13c.81.46.71,1.28-.22,1.82l-10,5.76A3.46,3.46,0,0,1,448.11,500.77Z" transform="translate(-3.33 0.04)" style="fill:#1a3e78"/><path d="M385.92,484.7l-10.07-5.82c-.81-.46-.71-1.28.22-1.82L388,470.2a3.5,3.5,0,0,1,3.15-.13l10.07,5.81c.81.47.71,1.28-.22,1.82l-11.89,6.87A3.56,3.56,0,0,1,385.92,484.7Z" transform="translate(-3.33 0.04)" style="fill:#1a3e78"/><path d="M273,419.5l-16.11-9.3c-.81-.47-.71-1.28.23-1.82L269,401.51a3.52,3.52,0,0,1,3.16-.13l16.1,9.3c.81.47.71,1.28-.22,1.82l-11.89,6.86A3.53,3.53,0,0,1,273,419.5Z" transform="translate(-3.33 0.04)" style="fill:#1a3e78"/><path d="M370.93,476.05l-16.1-9.3c-.81-.47-.71-1.29.23-1.82l11.88-6.87a3.52,3.52,0,0,1,3.16-.13l16.1,9.3c.81.47.71,1.28-.23,1.82l-11.88,6.86A3.55,3.55,0,0,1,370.93,476.05Z" transform="translate(-3.33 0.04)" style="fill:#1a3e78"/><path d="M295.42,432.45l-16.1-9.3c-.81-.47-.71-1.28.22-1.82l11.89-6.86a3.5,3.5,0,0,1,3.15-.13l16.11,9.29c.81.47.71,1.29-.23,1.83l-11.88,6.86A3.52,3.52,0,0,1,295.42,432.45Z" transform="translate(-3.33 0.04)" style="fill:#1a3e78"/><path d="M294.69,414.4l70,40.42a1,1,0,0,1,0,1.82l-12.12,7a3.5,3.5,0,0,1-3.15,0l-70-40.43Z" transform="translate(-3.33 0.04)" style="fill:#1a3e78"/><path d="M429.38,501l11.22,6.48c.66.38.57,1-.19,1.49l-4.86,2.81a2.92,2.92,0,0,1-2.59.11l-11.18-6.51c-.67-.38-.58-1.05.18-1.49l4.86-2.81A2.91,2.91,0,0,1,429.38,501Z" transform="translate(-3.33 0.04)" style="fill:#1a3e78"/><path d="M413.7,491.92l11.22,6.48c.66.38.58,1.05-.19,1.49l-4.86,2.81a2.85,2.85,0,0,1-2.59.1l-11.21-6.47c-.67-.38-.58-1.05.18-1.49l4.86-2.81A2.92,2.92,0,0,1,413.7,491.92Z" transform="translate(-3.33 0.04)" style="fill:#1a3e78"/><path d="M398.15,482.94l11.21,6.48c.67.38.58,1.05-.18,1.49l-4.86,2.81a2.92,2.92,0,0,1-2.59.11l-11.22-6.48c-.66-.38-.57-1.05.19-1.49l4.86-2.81A2.92,2.92,0,0,1,398.15,482.94Z" transform="translate(-3.33 0.04)" style="fill:#1a3e78"/><path d="M422.29,487l11.21,6.48c.67.38.58,1-.18,1.49l-4.86,2.81a2.92,2.92,0,0,1-2.59.11l-11.22-6.48c-.66-.38-.58-1.05.19-1.49l4.86-2.81A2.92,2.92,0,0,1,422.29,487Z" transform="translate(-3.33 0.04)" style="fill:#1a3e78"/><path d="M439,265.88l-9.63-5.56a4,4,0,0,1-1.65-3.1h0c0-1.2.69-1.76,1.58-1.24l9.63,5.56a4,4,0,0,1,1.65,3.11h0C440.58,265.85,439.87,266.4,439,265.88Z" transform="translate(-3.33 0.04)" style="fill:#d5ecfb"/><path d="M461.92,279.13l-14.2-8.2a4,4,0,0,1-1.65-3.11h0c0-1.2.69-1.75,1.58-1.23l14.2,8.19a3.93,3.93,0,0,1,1.65,3.11h0C463.52,279.09,462.78,279.65,461.92,279.13Z" transform="translate(-3.33 0.04)" style="fill:#d5ecfb"/><path d="M434.21,317.24l-9.63-5.56a4,4,0,0,1-1.66-3.1h0c0-1.2.69-1.76,1.59-1.24l9.63,5.56a4,4,0,0,1,1.64,3.1h0C435.78,317.2,435.1,317.76,434.21,317.24Z" transform="translate(-3.33 0.04)" style="fill:#d5ecfb"/><path d="M454.66,329.05l-14.2-8.2a4,4,0,0,1-1.66-3.11h0c0-1.2.69-1.75,1.59-1.23l14.2,8.2a4,4,0,0,1,1.65,3.1h0C456.26,329,455.55,329.57,454.66,329.05Z" transform="translate(-3.33 0.04)" style="fill:#d5ecfb"/><path d="M412.57,259.66l-6-3.48a4,4,0,0,1-1.66-3.1h0c0-1.2.69-1.76,1.59-1.24l6,3.47a3.93,3.93,0,0,1,1.65,3.11h0C414.17,259.62,413.47,260.17,412.57,259.66Z" transform="translate(-3.33 0.04)" style="fill:#d5ecfb"/><path d="M433.12,280.54l-18.34-10.62a4,4,0,0,1-1.65-3.1h0c0-1.2.69-1.76,1.58-1.24l18.39,10.61a4,4,0,0,1,1.65,3.11h0C434.72,280.5,434,281.05,433.12,280.54Z" transform="translate(-3.33 0.04)" style="fill:#d5ecfb"/><path d="M421.05,291.61l-6-3.48a4,4,0,0,1-1.65-3.1h0c0-1.2.69-1.76,1.58-1.24l6,3.47a4,4,0,0,1,1.65,3.11h0C422.65,291.57,421.94,292.12,421.05,291.61Z" transform="translate(-3.33 0.04)" style="fill:#d5ecfb"/><path d="M461.78,351.19l-16.07-9.28a4,4,0,0,1-1.65-3.11h0c0-1.2.69-1.75,1.58-1.23l16.07,9.27a4,4,0,0,1,1.65,3.11h0C463.36,351.15,462.65,351.7,461.78,351.19Z" transform="translate(-3.33 0.04)" style="fill:#d5ecfb"/><path d="M419.19,308.57l-3.87-2.23a4,4,0,0,1-1.65-3.11h0c0-1.2.69-1.75,1.58-1.23l3.87,2.23a4,4,0,0,1,1.65,3.1h0C420.78,308.53,420.08,309.09,419.19,308.57Z" transform="translate(-3.33 0.04)" style="fill:#d5ecfb"/><path d="M420.42,327.32l-4.8-2.77a4,4,0,0,1-1.65-3.11h0c0-1.2.69-1.75,1.58-1.24l4.8,2.77a4,4,0,0,1,1.65,3.11h0C422,327.28,421.31,327.83,420.42,327.32Z" transform="translate(-3.33 0.04)" style="fill:#d5ecfb"/><path d="M439.07,338.09l-12.64-7.3a4,4,0,0,1-1.65-3.11h0c0-1.2.69-1.75,1.58-1.24L439,333.75a4,4,0,0,1,1.66,3.1h0C440.68,338.05,440,338.61,439.07,338.09Z" transform="translate(-3.33 0.04)" style="fill:#d5ecfb"/><path d="M424.86,338.9l-9.08-5.25a4,4,0,0,1-1.66-3.1h0c0-1.2.69-1.76,1.59-1.24l9.09,5.25a4,4,0,0,1,1.65,3.1h0C426.46,338.86,425.78,339.42,424.86,338.9Z" transform="translate(-3.33 0.04)" style="fill:#d5ecfb"/><path d="M475.56,359.19l-5.84-3.37a4,4,0,0,1-1.66-3.1h0c0-1.2.69-1.76,1.59-1.24l5.84,3.37a4,4,0,0,1,1.65,3.1h0C477.16,359.15,476.45,359.71,475.56,359.19Z" transform="translate(-3.33 0.04)" style="fill:#d5ecfb"/><path d="M443.43,304.53l-16.07-9.28a4,4,0,0,1-1.66-3.11h0c0-1.2.69-1.75,1.59-1.24l16.07,9.28a4,4,0,0,1,1.65,3.11h0C445,304.49,444.32,305,443.43,304.53Z" transform="translate(-3.33 0.04)" style="fill:#d5ecfb"/><path d="M442.89,295.2l-28-16.2a4,4,0,0,1-1.65-3.11h0c0-1.2.69-1.75,1.58-1.24l28,16.17a4,4,0,0,1,1.65,3.11h0C444.49,295.16,443.78,295.71,442.89,295.2Z" transform="translate(-3.33 0.04)" style="fill:#d5ecfb"/><path d="M431.25,306.51l-16.07-9.27a4,4,0,0,1-1.66-3.11h0c0-1.2.69-1.75,1.59-1.24l16.07,9.28a4,4,0,0,1,1.65,3.11h0C432.85,306.48,432.14,307,431.25,306.51Z" transform="translate(-3.33 0.04)" style="fill:#d5ecfb"/><path d="M455.61,311.56l-5.83-3.37a4,4,0,0,1-1.66-3.1h0c0-1.2.69-1.76,1.59-1.24l5.83,3.37a4,4,0,0,1,1.66,3.11h0C457.22,311.53,456.51,312.08,455.61,311.56Z" transform="translate(-3.33 0.04)" style="fill:#d5ecfb"/><path d="M505.24,304.14l-34.58-20A4,4,0,0,1,469,281h0c0-1.2.69-1.76,1.58-1.24l34.58,20a4,4,0,0,1,1.61,3.11h0C506.84,304.1,506.13,304.65,505.24,304.14Z" transform="translate(-3.33 0.04)" style="fill:#d5ecfb"/><path d="M434.78,326.6l-19.32-11.16a4,4,0,0,1-1.65-3.1h0c0-1.2.69-1.76,1.58-1.24l19.32,11.15a4,4,0,0,1,1.65,3.11h0C436.39,326.56,435.68,327.11,434.78,326.6Z" transform="translate(-3.33 0.04)" style="fill:#d5ecfb"/><path d="M420.61,255.28l-14.2-8.2a4,4,0,0,1-1.63-3.08h0c0-1.2.69-1.75,1.59-1.24l14.2,8.2a4,4,0,0,1,1.65,3.11h0C422.21,255.24,421.5,255.79,420.61,255.28Z" transform="translate(-3.33 0.04)" style="fill:#d5ecfb"/><path d="M424.33,347.62l-16.45-9.5a4,4,0,0,1-1.65-3.11h0c0-1.2.69-1.75,1.58-1.24l16.45,9.5a4,4,0,0,1,1.65,3.11h0C425.93,347.58,425.22,348.13,424.33,347.62Z" transform="translate(-3.33 0.04)" style="fill:#d5ecfb"/><path d="M3.78,361.92,88.5,312.59c16.78-9.69,32.61-11.22,44.57-4.32S151.6,329.64,151.6,349v6.21c-.6.4-1.22.8-1.86,1.19V349c0-18.68-6.26-32.58-17.61-39.14s-26.52-5-42.7,4.33L4.78,363.53a.94.94,0,0,1-1.3-.3A1,1,0,0,1,3.78,361.92Z" transform="translate(-3.33 0.04)" style="fill:#d5ecfb"/><path d="M268,303.16V112.24c0-38.21,26.92-84.85,60-104C344.2-1.11,359.48-2.6,371,4.07s17.9,20.65,17.9,39.36V56.79L387,58.65V43.47c0-18-6-31.42-17-37.74S344.55.89,328.94,9.9c-32.58,18.81-59.09,64.72-59.09,102.34V303.16c0,31.67-18.63,69.16-43.91,91.72v-2.51C250.22,370.06,268,333.84,268,303.16Z" transform="translate(-3.33 0.04)" style="fill:#d5ecfb"/><path d="M389,62.63h0C392,59.71,406.34,47.1,427.21,43.9c23.64-3.61,33.41,24,33.41,24s2.73,14.36,2.64,22.85-.71,39.37-.71,39.37L387.61,87h0a.94.94,0,0,1-.51-.83V64.24C387.72,63.62,388.34,63.25,389,62.63Z" transform="translate(-3.33 0.04)" style="fill:#1a3e78"/><path d="M442.09,45.06l-71-40.95.27,1C360.42-2,343.87-2.73,321.74,13.5c-44,32.24-49.24,77.12-51.48,85.53s-1.32,61.69-1.32,61.69-.15,128.5-.29,143.45-4.5,31.71-12.9,49.82-30,40.07-30,40.07v26.16c3.44,28.28,15.46,34.87,33.33,36.48,14.43,1.3,29.8-9.11,42.08-20.47l-.74.78v26.15c3.44,28.28,15.46,34.88,33.34,36.49S371,484.89,384.06,471s24.15-35,30.29-54.12,4.1-43.77,4.1-43.77.15-140.47.29-168.16,1-22.86,10.11-50.7S462,107,462,107l57.75-17.24Z" transform="translate(-3.33 0.04)" style="fill:#d5ecfb"/><path d="M318.43,497.32c-1-1.33-13.63-9.81-16.85-24.76-1.8-8.31-1.61-20.95-1.61-20.95s0-7,.22-13.42l.43-.37v-2.5l-.36.3c0-1.44.11-2.79.17-3.94.37-6.64-4.54-20.81-4.54-20.81s-7-19-27.7-19.71c-18.4-.65-37.78,12.6-41.9,15.58v-8.57c-.28.19-.57.36-.86.55,0-1.15,0-2.33.09-3.48l.42-.36v-2.51c-.11.11-.23.2-.35.31,0-1.44.1-2.8.17-3.95.36-6.64-4.54-20.8-4.54-20.8s-7-19-27.7-19.71c-18.41-.65-37.78,12.59-41.91,15.58v-8.57c-.6.4-1.22.8-1.86,1.19v15c0,18.18,6,31.84,17,38.58h0l.39.22.3.19.2.1,76,43.77-.1-.1Z" transform="translate(-3.33 0.04)" style="fill:#1a3e78"/><path d="M207.78,351.21s-.57-.29-1.57-.7c-.31-.15-.61-.32-.92-.46l-72.21-41.78a38.75,38.75,0,0,0-29.31-1.1C87.78,313,3.68,363.46,3.68,363.46l75.1,43.26h0l.21.06,74.45,42.89s42.13-26.09,71.27-42.93l1.87-1.08c11.92-6.85,21.38-12,24.35-12.75,18-4.76,30.47,1,33.72,2.82Z" transform="translate(-3.33 0.04)" style="fill:#d5ecfb"/><path d="M284.65,395.72l.87.51A6.39,6.39,0,0,0,284.65,395.72Z" transform="translate(-3.33 0.04)" style="fill:#d5ecfb"/><path d="M463.64,105.57h0C466.7,102.66,481,90,501.88,86.85c23.64-3.62,33.41,24,33.41,24s2.74,14.36,2.64,22.86-.71,39.36-.71,39.36l-74.94-43.14h0a.91.91,0,0,1-.51-.82V107.19C462.39,106.56,463,106.19,463.64,105.57Z" transform="translate(-3.33 0.04)" style="fill:#1a3e78"/><path d="M333,500.71c8.26,0,17.4-2.75,26.87-8.22,32.86-19,59.59-65.27,59.59-103.21V198.37c0-37.62,26.5-83.53,59.08-102.34,15.61-9,30.2-10.49,41.2-4.18s17,19.73,17,37.75v42.68a.94.94,0,0,0,1.87.19.61.61,0,0,0,0-.19V129.6c0-18.72-6.36-32.69-17.91-39.36s-26.84-5.19-43,4.17c-33.1,19.11-60,65.75-60,104V389.28c0,37.35-26.31,82.92-58.66,101.59-15.48,8.94-30,10.42-40.87,4.14s-16.85-19.57-16.85-37.46v-22.4c0-19.38-6.58-33.85-18.53-40.76S255,389,238.26,398.72l-84.72,49.33a.93.93,0,0,0,.94,1.61l84.71-49.32c16.07-9.34,31.24-10.88,42.59-4.34s17.61,20.46,17.61,39.14v22.4c0,18.58,6.31,32.46,17.78,39.08A31.28,31.28,0,0,0,333,500.71Z" transform="translate(-3.33 0.04)" style="fill:#3a6dac"/><path d="M338.88,245.16l-12.52-7.23a5.19,5.19,0,0,1-2.15-4h0c0-1.56.9-2.28,2.06-1.61l12.51,7.19a5.16,5.16,0,0,1,2.15,4h0C341,245.11,340.05,245.83,338.88,245.16Z" transform="translate(-3.33 0.04)" style="fill:#5793ce"/><path d="M365.48,260.51,347,249.85a5.19,5.19,0,0,1-2.15-4h0c0-1.56.9-2.28,2.06-1.61l18.46,10.66a5.16,5.16,0,0,1,2.15,4h0C367.56,260.46,366.64,261.19,365.48,260.51Z" transform="translate(-3.33 0.04)" style="fill:#5793ce"/><path d="M337.47,197.43l-23.91-13.8a5.19,5.19,0,0,1-2.15-4h0c0-1.56.9-2.28,2.06-1.61l23.9,13.8a5.14,5.14,0,0,1,2.15,4h0C339.55,197.38,338.63,198.1,337.47,197.43Z" transform="translate(-3.33 0.04)" style="fill:#5793ce"/><path d="M321.78,211.82,314,207.31a5.18,5.18,0,0,1-2.14-4h0c0-1.56.89-2.28,2.05-1.61l7.83,4.51a5.19,5.19,0,0,1,2.15,4h0C323.85,211.77,322.93,212.49,321.78,211.82Z" transform="translate(-3.33 0.04)" style="fill:#5793ce"/><path d="M319.35,233.88l-5-2.9a5.16,5.16,0,0,1-2.15-4h0c0-1.56.89-2.28,2.06-1.61l5,2.9a5.19,5.19,0,0,1,2.15,4h0C321.43,233.83,320.51,234.55,319.35,233.88Z" transform="translate(-3.33 0.04)" style="fill:#5793ce"/><path d="M350.87,228.63,330,216.56a5.19,5.19,0,0,1-2.15-4h0c0-1.56.9-2.28,2.06-1.61L350.78,223a5.19,5.19,0,0,1,2.15,4h0C353,228.58,352,229.3,350.87,228.63Z" transform="translate(-3.33 0.04)" style="fill:#5793ce"/><path d="M350.17,216.49l-36.42-21a5.19,5.19,0,0,1-2.15-4h0c0-1.56.9-2.28,2.06-1.61l36.42,21a5.19,5.19,0,0,1,2.15,4h0C352.26,216.44,351.33,217.17,350.17,216.49Z" transform="translate(-3.33 0.04)" style="fill:#5793ce"/><path d="M335,231.21l-20.89-12.06a5.16,5.16,0,0,1-2.15-4h0c0-1.56.89-2.29,2.06-1.61l20.89,12.06a5.16,5.16,0,0,1,2.15,4h0C337.12,231.16,336.19,231.88,335,231.21Z" transform="translate(-3.33 0.04)" style="fill:#5793ce"/><path d="M366.72,237.78l-7.59-4.39a5.16,5.16,0,0,1-2.15-4h0c0-1.56.89-2.28,2.06-1.61l7.59,4.39a5.19,5.19,0,0,1,2.15,4h0C368.78,237.73,367.88,238.45,366.72,237.78Z" transform="translate(-3.33 0.04)" style="fill:#5793ce"/><path d="M345.09,178.38l-12.53-7.23a5.18,5.18,0,0,1-2.14-4h0c0-1.56.89-2.29,2.05-1.61L345,172.77a5.19,5.19,0,0,1,2.15,4h0C347.17,178.33,346.25,179.05,345.09,178.38Z" transform="translate(-3.33 0.04)" style="fill:#5793ce"/><path d="M374.92,195.6l-18.47-10.66a5.19,5.19,0,0,1-2.15-4h0c0-1.56.9-2.28,2.06-1.61L374.83,190a5.19,5.19,0,0,1,2.15,4h0C377,195.55,376.08,196.27,374.92,195.6Z" transform="translate(-3.33 0.04)" style="fill:#5793ce"/><path d="M338.88,245.16l-12.52-7.23a5.19,5.19,0,0,1-2.15-4h0c0-1.56.9-2.28,2.06-1.61l12.51,7.19a5.16,5.16,0,0,1,2.15,4h0C341,245.11,340.05,245.83,338.88,245.16Z" transform="translate(-3.33 0.04)" style="fill:#5793ce"/><path d="M365.48,260.51,347,249.85a5.19,5.19,0,0,1-2.15-4h0c0-1.56.9-2.28,2.06-1.61l18.46,10.66a5.16,5.16,0,0,1,2.15,4h0C367.56,260.46,366.64,261.19,365.48,260.51Z" transform="translate(-3.33 0.04)" style="fill:#5793ce"/><path d="M310.78,170.28,303,165.76a5.18,5.18,0,0,1-2.14-4h0c0-1.56.89-2.28,2.05-1.61l7.83,4.52a5.19,5.19,0,0,1,2.15,4h0C312.83,170.23,311.91,171,310.78,170.28Z" transform="translate(-3.33 0.04)" style="fill:#5793ce"/><path d="M337.47,197.43l-23.91-13.8a5.19,5.19,0,0,1-2.15-4h0c0-1.56.9-2.28,2.06-1.61l23.9,13.8a5.14,5.14,0,0,1,2.15,4h0C339.55,197.38,338.63,198.1,337.47,197.43Z" transform="translate(-3.33 0.04)" style="fill:#5793ce"/><path d="M321.78,211.82,314,207.31a5.18,5.18,0,0,1-2.14-4h0c0-1.56.89-2.28,2.05-1.61l7.83,4.51a5.19,5.19,0,0,1,2.15,4h0C323.85,211.77,322.93,212.49,321.78,211.82Z" transform="translate(-3.33 0.04)" style="fill:#5793ce"/><path d="M374.71,289.3l-20.93-12.06a5.19,5.19,0,0,1-2.15-4h0c0-1.56.9-2.28,2.06-1.61l20.9,12.06a5.19,5.19,0,0,1,2.15,4h0C376.78,289.25,375.87,290,374.71,289.3Z" transform="translate(-3.33 0.04)" style="fill:#5793ce"/><path d="M319.35,233.88l-5-2.9a5.16,5.16,0,0,1-2.15-4h0c0-1.56.89-2.28,2.06-1.61l5,2.9a5.19,5.19,0,0,1,2.15,4h0C321.43,233.83,320.51,234.55,319.35,233.88Z" transform="translate(-3.33 0.04)" style="fill:#5793ce"/><path d="M321,258.26l-6.24-3.6a5.19,5.19,0,0,1-2.15-4h0c0-1.56.9-2.28,2.06-1.61l6.24,3.6a5.19,5.19,0,0,1,2.15,4h0C323,258.21,322.11,258.93,321,258.26Z" transform="translate(-3.33 0.04)" style="fill:#5793ce"/><path d="M345.21,272.27l-16.43-9.49a5.16,5.16,0,0,1-2.15-4h0c0-1.56.89-2.28,2.06-1.61l16.44,9.49a5.19,5.19,0,0,1,2.15,4h0C347.29,272.22,346.37,272.94,345.21,272.27Z" transform="translate(-3.33 0.04)" style="fill:#5793ce"/><path d="M326.78,273.33,315,266.5a5.19,5.19,0,0,1-2.15-4h0c0-1.56.9-2.28,2.06-1.61l11.82,6.83a5.11,5.11,0,0,1,2.15,4h0C328.78,273.28,327.89,274,326.78,273.33Z" transform="translate(-3.33 0.04)" style="fill:#5793ce"/><path d="M350.87,228.63,330,216.56a5.19,5.19,0,0,1-2.15-4h0c0-1.56.9-2.28,2.06-1.61L350.78,223a5.19,5.19,0,0,1,2.15,4h0C353,228.58,352,229.3,350.87,228.63Z" transform="translate(-3.33 0.04)" style="fill:#5793ce"/><path d="M350.17,216.49l-36.42-21a5.19,5.19,0,0,1-2.15-4h0c0-1.56.9-2.28,2.06-1.61l36.42,21a5.19,5.19,0,0,1,2.15,4h0C352.26,216.44,351.33,217.17,350.17,216.49Z" transform="translate(-3.33 0.04)" style="fill:#5793ce"/><path d="M335,231.21l-20.89-12.06a5.16,5.16,0,0,1-2.15-4h0c0-1.56.89-2.29,2.06-1.61l20.89,12.06a5.16,5.16,0,0,1,2.15,4h0C337.12,231.16,336.19,231.88,335,231.21Z" transform="translate(-3.33 0.04)" style="fill:#5793ce"/><path d="M366.72,237.78l-7.59-4.39a5.16,5.16,0,0,1-2.15-4h0c0-1.56.89-2.28,2.06-1.61l7.59,4.39a5.19,5.19,0,0,1,2.15,4h0C368.78,237.73,367.88,238.45,366.72,237.78Z" transform="translate(-3.33 0.04)" style="fill:#5793ce"/><path d="M339.64,257.33l-25.12-14.51a5.19,5.19,0,0,1-2.15-4h0c0-1.56.9-2.28,2.06-1.61l25.12,14.5a5.22,5.22,0,0,1,2.15,4h0C341.72,257.28,340.78,258,339.64,257.33Z" transform="translate(-3.33 0.04)" style="fill:#5793ce"/><path d="M321.2,164.58l-18.42-10.66a5.19,5.19,0,0,1-2.15-4h0c0-1.56.9-2.28,2.06-1.61L321.16,159a5.19,5.19,0,0,1,2.15,4h0C323.28,164.53,322.36,165.25,321.2,164.58Z" transform="translate(-3.33 0.04)" style="fill:#5793ce"/><path d="M326,284.66l-21.39-12.35a5.19,5.19,0,0,1-2.15-4h0c0-1.56.9-2.28,2.06-1.61L326,279a5.19,5.19,0,0,1,2.15,4h0C328.12,284.61,327.2,285.33,326,284.66Z" transform="translate(-3.33 0.04)" style="fill:#5793ce"/><path d="M335.94,357.51l-12.52-7.23a5.14,5.14,0,0,1-2.15-4h0c0-1.56.89-2.28,2.05-1.61l12.53,7.23a5.19,5.19,0,0,1,2.15,4h0C338,357.46,337.1,358.18,335.94,357.51Z" transform="translate(-3.33 0.04)" style="fill:#5793ce"/><path d="M362.53,372.86,344.07,362.2a5.14,5.14,0,0,1-2.15-4h0c0-1.56.89-2.28,2.05-1.61l18.47,10.66a5.16,5.16,0,0,1,2.15,4h0C364.62,372.81,363.69,373.53,362.53,372.86Z" transform="translate(-3.33 0.04)" style="fill:#5793ce"/><path d="M334.52,309.78,310.62,296a5.19,5.19,0,0,1-2.15-4h0c0-1.56.89-2.29,2.06-1.61l23.9,13.8a5.19,5.19,0,0,1,2.15,4h0C336.6,309.73,335.68,310.45,334.52,309.78Z" transform="translate(-3.33 0.04)" style="fill:#5793ce"/><path d="M318.78,324.17,311,319.65a5.19,5.19,0,0,1-2.15-4h0c0-1.56.9-2.28,2.06-1.61l7.82,4.52a5.16,5.16,0,0,1,2.15,4h0C320.91,324.12,320,324.84,318.78,324.17Z" transform="translate(-3.33 0.04)" style="fill:#5793ce"/><path d="M316.41,346.23l-5-2.9a5.19,5.19,0,0,1-2.15-4h0c0-1.56.9-2.28,2.06-1.61l5,2.9a5.14,5.14,0,0,1,2.15,4h0C318.49,346.18,317.57,346.9,316.41,346.23Z" transform="translate(-3.33 0.04)" style="fill:#5793ce"/><path d="M347.93,341,327,328.94a5.19,5.19,0,0,1-2.15-4h0c0-1.56.9-2.28,2.06-1.61l20.9,12.06a5.18,5.18,0,0,1,2.14,4h0C350,340.92,349.09,341.64,347.93,341Z" transform="translate(-3.33 0.04)" style="fill:#5793ce"/><path d="M347.23,328.84l-36.42-21a5.16,5.16,0,0,1-2.15-4h0c0-1.56.9-2.28,2.06-1.61l36.42,21a5.19,5.19,0,0,1,2.15,4h0C349.31,328.79,348.39,329.51,347.23,328.84Z" transform="translate(-3.33 0.04)" style="fill:#5793ce"/><path d="M332.09,343.56l-20.9-12.07a5.19,5.19,0,0,1-2.15-4h0c0-1.56.9-2.28,2.06-1.61L332,338a5.19,5.19,0,0,1,2.15,4h0C334.17,343.51,333.25,344.23,332.09,343.56Z" transform="translate(-3.33 0.04)" style="fill:#5793ce"/><path d="M363.78,350.12l-7.6-4.38a5.19,5.19,0,0,1-2.15-4h0c0-1.56.9-2.28,2.06-1.61l7.59,4.38a5.14,5.14,0,0,1,2.15,4h0C365.86,350.07,364.94,350.79,363.78,350.12Z" transform="translate(-3.33 0.04)" style="fill:#5793ce"/><path d="M97.5,485s-7.16-3.61-11.56,1.77-10.68,18.06-10.88,26.64,6.79,8,10.94,6,16.28-19.62,17-23.06-.87-8.11-2-9S97.5,485,97.5,485Z" transform="translate(-3.33 0.04)" style="fill:#5793ce"/><path d="M99.06,483.29l.33,7.42a4.2,4.2,0,0,1-2.09,3.86,8.3,8.3,0,0,1-5.53.86c-5.39-.87-5.87-2.41-6.26-9.82S99.06,483.29,99.06,483.29Z" transform="translate(-3.33 0.04)" style="fill:#d5ecfb"/><path d="M71.29,470.76s-7.16-3.61-11.56,1.76-10.68,18.07-10.87,26.65,6.78,8,10.93,6,16.28-19.62,17-23.07-.87-8.1-2-9S71.29,470.76,71.29,470.76Z" transform="translate(-3.33 0.04)" style="fill:#5793ce"/><path d="M72.85,469l.33,7.42a4.2,4.2,0,0,1-2.09,3.86,8.3,8.3,0,0,1-5.53.86c-5.39-.87-5.87-2.41-6.26-9.83S72.85,469,72.85,469Z" transform="translate(-3.33 0.04)" style="fill:#d5ecfb"/><path d="M136.78,332.84c-2.12-34.48-37.34,5.08-37.34,5.08L75.29,361.54,53.58,385.39a21.4,21.4,0,0,0-5.39,17.19L57,469.45a6.57,6.57,0,0,0,6.59,5.71,22.31,22.31,0,0,0,3.26-.29c7.83-1.22,7.25-8.66,7.25-8.66l-1.6-62.54,45.59-27.49S138.86,367.32,136.78,332.84Z" transform="translate(-3.33 0.04)" style="fill:#1a3e78"/><path d="M163,346c-2.12-34.48-37.34,5.07-37.34,5.07L101.5,374.7,79.78,398.53a21.4,21.4,0,0,0-5.39,17.19l8.78,66.87a6.59,6.59,0,0,0,6.61,5.71A23.79,23.79,0,0,0,93,488c7.83-1.22,7.25-8.67,7.25-8.67l-1.6-62.54,45.58-27.48S165.07,380.46,163,346Z" transform="translate(-3.33 0.04)" style="fill:#1a3e78"/><path d="M142.11,235.3c26.71,11.07,26.17,26.85,26.17,26.85s-5.23,57.87-3.44,96.52C165.58,374.83,79,376.06,91.91,333c15.22-50.83,9.52-92,16.64-98.18S135.21,232.43,142.11,235.3Z" transform="translate(-3.33 0.04)" style="fill:#5793ce"/><path d="M150.7,249.29c-1.39,5.42-8.5,8.28-15.86,6.38s-12.21-7.83-10.81-13.25,8.5-8.28,15.86-6.38S152.1,243.87,150.7,249.29Z" transform="translate(-3.33 0.04)" style="fill:#f8c0b0"/><path d="M139.35,257.53a19.22,19.22,0,0,1-4.83-.62,17.7,17.7,0,0,1-9.36-5.73,10.2,10.2,0,0,1-2.38-9.08c1.57-6.09,9.39-9.37,17.42-7.29a17.7,17.7,0,0,1,9.36,5.73,10.18,10.18,0,0,1,2.37,9.07h0C150.69,254.47,145.47,257.53,139.35,257.53Zm-4-20.8c-5,0-9.1,2.31-10.06,6a7.74,7.74,0,0,0,1.88,6.82,15.12,15.12,0,0,0,8,4.88c6.66,1.71,13.09-.74,14.31-5.47h0a7.77,7.77,0,0,0-1.87-6.82,15.25,15.25,0,0,0-8-4.87,16.76,16.76,0,0,0-4.29-.54Z" transform="translate(-3.33 0.04)" style="fill:#fff"/><path d="M131.41,234.09s.23,1.07-.24,9.54c-.14,2.66,9.17,5.14,11.58,2.73s1.45-4.91,2-14S131.41,234.09,131.41,234.09Z" transform="translate(-3.33 0.04)" style="fill:#f8c0b0"/><path d="M144.78,232.4s-2.29,8.39-13.6,11.61l.17-7.63Z" transform="translate(-3.33 0.04)" style="fill:#eb9d93"/><circle cx="127.37" cy="216.38" r="20.44" style="fill:#f8c0b0"/><path d="M136.78,217s-11.32,4.85-19.16,4.9-6.11-6.5-6.11-6.5l23.27-3.4Z" transform="translate(-3.33 0.04)" style="fill:#eb9d93"/><path d="M115.27,218.25s9.86-4.19,18.51-2.44a9,9,0,0,1,5.22,3.1,3.1,3.1,0,0,0,1.58,1.15c1.54.34,4-6,7-6.16s5,2,2.52,5.87-1.61,8.3-.49,8.92,13-8.5,2.53-29.35-37.22-9.61-41.36-5.34c0,0-4.38,3.82-7.94.42C102.83,194.37,98.83,224.27,115.27,218.25Z" transform="translate(-3.33 0.04)" style="fill:#3f5ca7"/><path d="M153.3,304.43v15.64a6.36,6.36,0,0,1-2.08,4.71L119.1,354.06l3.65,5.58,42.42-30.76a8.62,8.62,0,0,0,3.51-6.08l2.87-27.27Z" transform="translate(-3.33 0.04)" style="fill:#f8c0b0"/><path d="M166,254.33s9.76,14.67,13.38,53.24c0,0-16.65,5.38-26.1,2.33S166,254.33,166,254.33Z" transform="translate(-3.33 0.04)" style="fill:#5793ce"/><path d="M151.52,272.86s-3.81,20.42-4,30a6.14,6.14,0,0,0,4,5.92h0Z" transform="translate(-3.33 0.04)" style="fill:#3a6dac"/><path d="M143.19,374.4l-7.1-.94L90.26,347a6.38,6.38,0,0,0-5.74.24L52.05,366l-4.27-.59v4.28h0a1.66,1.66,0,0,0,1,1.5l51.94,30a6.36,6.36,0,0,0,5.73-.24l35.33-20.42a2.33,2.33,0,0,0,1.41-1.93h0Z" transform="translate(-3.33 0.04)" style="fill:#5793ce"/><path d="M108.78,357.68l-3.25-1.88H69.7L52.05,366l-4.27-.59v4.28h0a1.66,1.66,0,0,0,1,1.5l51.94,30a5.2,5.2,0,0,0,3,.55Z" transform="translate(-3.33 0.04)" style="fill:#3a6dac"/><path d="M49.66,365.66l-1.9-.25v4.28h0a1.66,1.66,0,0,0,1,1.5l.91.53Z" transform="translate(-3.33 0.04)" style="fill:#5793ce"/><path d="M101.21,401.42a6.67,6.67,0,0,0,4.87-.3v-7.27h-4.87Z" transform="translate(-3.33 0.04)" style="fill:#fff"/><path d="M100.69,396.91l-51.91-30c-1.47-.85-1.29-2.33.41-3.31L84.52,343.2a6.38,6.38,0,0,1,5.74-.24l51.94,30c1.47.85,1.28,2.33-.42,3.31l-35.36,20.41A6.36,6.36,0,0,1,100.69,396.91Z" transform="translate(-3.33 0.04)" style="fill:#fff"/><path d="M99.78,392.36,56.62,367.43c-1.22-.71-1.07-1.94.34-2.75L75.91,354a5.31,5.31,0,0,1,4.77-.2l43.19,24.94c1.22.7,1.07,1.93-.34,2.75l-19,10.65A5.24,5.24,0,0,1,99.78,392.36Z" transform="translate(-3.33 0.04)" style="fill:#d5ecfb"/><path d="M86.53,342.21,86,345.8a26.77,26.77,0,0,0,.24,9.19l.64,3.15a4.41,4.41,0,0,0,3.56,3.49h0a2.43,2.43,0,0,0,2.84-1.95l0-.18.86-7.67s2,2.57,2.9,2.57-1.06-7.67-3.2-12S86.53,342.21,86.53,342.21Z" transform="translate(-3.33 0.04)" style="fill:#f8c0b0"/><path d="M104.14,285.26l-5.57,11a21.64,21.64,0,0,0-2.29,8.37l-2.42,37.73-7.33-.18L83.2,299.81a16,16,0,0,1,.19-3.91l3.81-21.49Z" transform="translate(-3.33 0.04)" style="fill:#f8c0b0"/><path d="M98.93,399.79l-4.36-5.69L48.78,367.59a6.39,6.39,0,0,1-2.65-5.09V325l-2.64-3.43L46,320.13h0a1.68,1.68,0,0,1,1.8.1l51.9,30a6.36,6.36,0,0,1,2.65,5.09V396.2a2.31,2.31,0,0,1-1,2.18h0Z" transform="translate(-3.33 0.04)" style="fill:#1a3e78"/><path d="M67.25,378.29,64,376.4l-17.86-31V325l-2.64-3.43L46,320.15h0a1.68,1.68,0,0,1,1.8.1l51.9,30.05a5.41,5.41,0,0,1,2,2.29Z" transform="translate(-3.33 0.04)" style="fill:#3a6dac"/><path d="M44.69,323.09l-1.17-1.52L46,320.13h0a1.68,1.68,0,0,1,1.8.1l.91.53Z" transform="translate(-3.33 0.04)" style="fill:#5793ce"/><path d="M100.17,350.62a6.68,6.68,0,0,1,2.17,4.37l-5.07,2.93-2.43-4.22Z" transform="translate(-3.33 0.04)" style="fill:#284f8a"/><path d="M97.23,351.72l-51.9-30.05c-1.47-.85-2.67.05-2.67,2V364.5a6.39,6.39,0,0,0,2.65,5.09l51.91,30c1.46.85,2.66,0,2.66-2V356.76A6.36,6.36,0,0,0,97.23,351.72Z" transform="translate(-3.33 0.04)" style="fill:#5793ce"/><path d="M122.78,359.64l-.83,1.73a11.65,11.65,0,0,1-4.34,4.81l-5.16,3.17a5.12,5.12,0,0,1-5.26.13l-.18-.11a3.11,3.11,0,0,1-.81-4.31,3.23,3.23,0,0,1,.38-.45l5.38-5.54s-3,2.32-3.87,1.38c-.62-.68,2.93-4,5.67-4.13a10.85,10.85,0,0,0,5.37-2.26Z" transform="translate(-3.33 0.04)" style="fill:#f8c0b0"/><path d="M109.09,234.7s-19.75,21.49-27.72,41.21c0,0,6.75,12.17,23.29,16.94S109.09,234.7,109.09,234.7Z" transform="translate(-3.33 0.04)" style="fill:#5793ce"/><path d="M100.94,291.58l3.2-30.93-7.54,29A41,41,0,0,0,100.94,291.58Z" transform="translate(-3.33 0.04)" style="fill:#3a6dac"/><path d="M123.88,230.37l-5.31-1.46s2.54,4,6.24,5,4.27-2.11,4.27-2.11Z" transform="translate(-3.33 0.04)" style="fill:#fff"/><path d="M152.23,221.87a3,3,0,1,1-3-3A3,3,0,0,1,152.23,221.87Z" transform="translate(-3.33 0.04)" style="fill:#fff"/><path d="M505.69,18.87A11.35,11.35,0,1,1,494.34,7.52h0a11.34,11.34,0,0,1,11.34,11.34Z" transform="translate(-3.33 0.04)" style="fill:#d5ecfb"/><path d="M444.35,136.21l-54-31.15a2.73,2.73,0,0,0-2.78-.22h0l-5.23,3,3.67,1.35v39.28c0,3.2,2,6.91,4.34,8.3L442,186.54v4.61l5.28-3h0c.9-.54,1.47-1.74,1.47-3.46V144.5C448.69,141.3,446.78,137.59,444.35,136.21Z" transform="translate(-3.33 0.04)" style="fill:#2d2e83"/><path d="M439,191l-53.95-31.14c-2.39-1.39-4.34-5.1-4.34-8.29V111.41c0-3.19,1.95-4.66,4.34-3.28L439,139.28c2.4,1.38,4.34,5.09,4.34,8.29v40.11C443.36,190.88,441.42,192.35,439,191Z" transform="translate(-3.33 0.04)" style="fill:#3f5ca7"/><path d="M403.22,146c0,2.32-1.63,3.26-3.64,2.1a8.06,8.06,0,0,1-3.64-6.31c0-2.32,1.63-3.26,3.64-2.1A8,8,0,0,1,403.22,146Z" transform="translate(-3.33 0.04)" style="fill:#fff"/><path d="M414.24,152.36c0,2.32-1.63,3.26-3.64,2.1a8,8,0,0,1-3.64-6.3c0-2.32,1.63-3.26,3.64-2.1A8,8,0,0,1,414.24,152.36Z" transform="translate(-3.33 0.04)" style="fill:#fff"/><path d="M425.27,158.73c0,2.32-1.63,3.26-3.64,2.1a8,8,0,0,1-3.64-6.3c0-2.33,1.63-3.27,3.64-2.11A8.06,8.06,0,0,1,425.27,158.73Z" transform="translate(-3.33 0.04)" style="fill:#fff"/></svg>